<svg xmlns="http://www.w3.org/2000/svg" width="115" height="54" viewBox="0 0 115 54">
  <g id="_1000km_" data-name="1000km+" opacity="0.1">
    <g id="Pfad_2020" data-name="Pfad 2020" fill="#fff" opacity="0.4">
      <path d="M 88 53.5 L 27 53.5 C 23.42230796813965 53.5 19.9518928527832 52.79941558837891 16.68515396118164 51.41770935058594 C 13.52961540222168 50.08303070068359 10.69553852081299 48.17219924926758 8.261661529541016 45.73833847045898 C 5.827799797058105 43.30446243286133 3.916969299316406 40.47038650512695 2.582292318344116 37.31484603881836 C 1.200584650039673 34.0481071472168 0.5 30.57769203186035 0.5 27 C 0.5 23.42230796813965 1.200584650039673 19.9518928527832 2.582292318344116 16.68515396118164 C 3.916969299316406 13.52961540222168 5.827799797058105 10.69553852081299 8.261661529541016 8.261661529541016 C 10.69553852081299 5.827799797058105 13.52961540222168 3.916969299316406 16.68515396118164 2.582292318344116 C 19.9518928527832 1.200584650039673 23.42230796813965 0.5 27 0.5 L 88 0.5 C 91.57769012451172 0.5 95.04811096191406 1.200584650039673 98.31484985351563 2.582292318344116 C 101.4703826904297 3.916969299316406 104.3044586181641 5.827799797058105 106.7383346557617 8.261661529541016 C 109.1722030639648 10.69553852081299 111.0830307006836 13.52961540222168 112.4177093505859 16.68515396118164 C 113.7994155883789 19.9518928527832 114.5 23.42230796813965 114.5 27 C 114.5 30.57769203186035 113.7994155883789 34.0481071472168 112.4177093505859 37.31484603881836 C 111.0830307006836 40.47038650512695 109.1722030639648 43.30446243286133 106.7383346557617 45.73833847045898 C 104.3044586181641 48.17219924926758 101.4703826904297 50.08303070068359 98.31484985351563 51.41770935058594 C 95.04811096191406 52.79941558837891 91.57769012451172 53.5 88 53.5 Z" stroke="none"/>
      <path d="M 27 1 C 23.48958587646484 1 20.08469390869141 1.687294006347656 16.87993621826172 3.042800903320313 C 13.78398132324219 4.352275848388672 11.00334167480469 6.227108001708984 8.615219116210938 8.615215301513672 C 6.227104187011719 11.00333786010742 4.352279663085938 13.78398513793945 3.042800903320313 16.87994003295898 C 1.687294006347656 20.08469390869141 1 23.48958396911621 1 27 C 1 30.51041603088379 1.687294006347656 33.91530609130859 3.042800903320313 37.12006378173828 C 4.352279663085938 40.21601486206055 6.227104187011719 42.99666213989258 8.615219116210938 45.38478469848633 C 11.00334167480469 47.77289199829102 13.78398132324219 49.64772415161133 16.87993621826172 50.95719909667969 C 20.08469390869141 52.31270599365234 23.48958587646484 53 27 53 L 88 53 C 91.51041412353516 53 94.91530609130859 52.31270599365234 98.12006378173828 50.95719909667969 C 101.2160186767578 49.64772415161133 103.9966583251953 47.77289199829102 106.3847808837891 45.38478469848633 C 108.7728958129883 42.99666213989258 110.6477203369141 40.21601486206055 111.9571990966797 37.12006378173828 C 113.3127059936523 33.91530609130859 114 30.51041603088379 114 27 C 114 23.48958396911621 113.3127059936523 20.08469390869141 111.9571990966797 16.87994003295898 C 110.6477203369141 13.78398513793945 108.7728958129883 11.00333786010742 106.3847808837891 8.615215301513672 C 103.9966583251953 6.227108001708984 101.2160186767578 4.352275848388672 98.12006378173828 3.042800903320313 C 94.91530609130859 1.687294006347656 91.51041412353516 1 88 1 L 27 1 M 27 0 L 88 0 C 102.9116897583008 0 115 12.08830642700195 115 27 C 115 41.91169357299805 102.9116897583008 54 88 54 L 27 54 C 12.08831024169922 54 0 41.91169357299805 0 27 C 0 12.08830642700195 12.08831024169922 0 27 0 Z" stroke="none" fill="#fff6f6"/>
    </g>
    <text id="_1000km" data-name="&gt;1000km" transform="translate(16 36)" font-size="20" font-family="SegoeUI-Semibold, Segoe UI" font-weight="600"><tspan x="0" y="0">&gt;1000km</tspan></text>
  </g>
</svg>
